<svg width="72" height="50" viewBox="0 0 72 50" fill="none" xmlns="http://www.w3.org/2000/svg">
<path id="image 3 (Traced)" fill-rule="evenodd" clip-rule="evenodd" d="M26.8341 0.698832C20.5387 1.75099 12.053 4.20761 7.85688 6.96806C-1.55435 13.1601 -1.64807 21.1763 6.65014 26.0069C10.0278 27.9728 8.92866 29.2193 9.38948 32.7576C10.2851 39.6316 11.0846 41.9618 14.0023 44.6948C18.4217 48.835 25.1014 49.9142 35.4426 49.8925C44.7716 49.8725 51.6547 47.7687 55.3656 44.6948C57.9342 42.568 60.1721 37.0988 60.1721 32.7576C60.1721 29.3702 60.0915 30.2014 63.7143 28.2921C72.7285 23.5424 73.9657 13.1201 66.6042 6.96806C60.2005 1.61557 39.7834 -1.46634 26.8341 0.698832ZM56.9161 4.65532C60.6094 5.84587 63.7521 7.53916 65.7297 9.40419L68.8036 12.3022L64.7342 9.81605C55.3456 4.08005 40.3333 3.20131 24.7148 9.14741C21.4832 10.3771 15.9934 12.2889 12.3236 13.4019C8.6546 14.5149 4.0911 16.6125 3.25927 17.3604C1.84741 18.6293 2.07211 19.0378 2.07211 17.3604C2.07211 15.1227 7.61208 9.52341 12.0499 7.27403C19.8319 3.33137 26.0535 2.23586 39.0052 2.52933C48.7539 2.75026 52.3188 3.17296 56.9161 4.65532ZM58.9415 9.14741C63.3835 10.5439 69.2233 14.8484 69.2233 17.4388C69.2233 19.9324 66.8746 23.3148 63.7143 25.3725C62.1405 26.3971 60.5465 27.2358 60.1721 27.2358C59.9797 27.2358 60.1444 26.5494 60.1721 25.572C60.1985 24.6435 60.3828 23.6763 60.474 22.2555C60.7913 17.3032 60.0143 16.4875 57.7983 14.4465C54.5423 11.4476 49.1006 9.74268 40.8796 9.14741C37.0629 8.87061 34.1007 8.48543 34.2963 8.29118C35.0777 7.51498 46.4308 6.90886 50.7679 7.27403C53.3071 7.48747 56.728 8.45125 58.9415 9.14741ZM48.7246 12.3022C54.7967 14.1072 58.3112 15.8647 58.3112 19.2788V21.4164L54.3241 19.2788C43.2635 14.8409 27.0129 14.3498 15.9145 18.8019L12.1448 20.5973V18.8019C12.1448 16.7718 12.5359 15.5604 13.194 15.5554C13.7715 15.5512 17.0672 14.5914 19.6063 13.4117C22.1455 12.2312 25.9332 11.6026 27.7799 11.2008C32.399 10.1978 43.5254 10.7565 48.7246 12.3022ZM10.466 21.4164V26.4363L7.34603 23.9293C5.47671 22.9822 4.0555 21.8896 3.77011 21.1501C3.13973 19.5193 5.46042 17.3604 7.85688 17.3604C9.29224 17.3604 10.466 17.0011 10.466 21.4164ZM45.6595 19.2788C48.1055 19.7949 52.1316 20.837 54.3241 21.9342L58.3112 23.9293L58.2743 28.2921C58.1475 43.4875 52.6084 47.722 33.6407 47.1234C25.5868 46.8699 23.6847 46.5281 20.0963 44.6948C17.8006 43.5209 15.0583 41.2874 14.0023 39.7316C12.3303 37.2672 12.1137 36.0366 12.3236 30.193L12.5645 23.4841L15.9145 22.0401C23.307 18.4567 36.2558 17.297 45.6595 19.2788Z" fill="black"/>
</svg>
