<svg width="102" height="69" viewBox="0 0 102 69" fill="none" xmlns="http://www.w3.org/2000/svg">
<g id="Group 7">
<path id="image 3 (Traced)" fill-rule="evenodd" clip-rule="evenodd" d="M37.793 0.96646C28.7226 2.42156 16.4964 5.81898 10.4507 9.63659C-3.10906 18.2 -3.24408 29.2861 8.71198 35.9667C13.5786 38.6855 11.9949 40.4093 12.6588 45.3026C13.9493 54.8092 15.1012 58.0318 19.3051 61.8113C25.6725 67.5372 35.2965 69.0295 50.1962 68.9996C63.6374 68.9719 73.5546 66.0625 78.9013 61.8113C82.6021 58.87 85.8265 51.3063 85.8265 45.3026C85.8265 40.6179 85.7104 41.7674 90.9302 39.1271C103.918 32.5584 105.7 18.1446 95.0939 9.63659C85.8674 2.23428 56.4504 -2.0279 37.793 0.96646ZM81.1353 6.43814C86.4566 8.08464 90.9846 10.4264 93.8339 13.0057L98.2627 17.0135L92.3996 13.5753C78.8725 5.64257 57.2427 4.4273 34.7396 12.6505C30.0834 14.3512 22.1737 16.9951 16.8863 18.5343C11.6 20.0736 5.02492 22.9746 3.82641 24.0088C1.79221 25.7637 2.11595 26.3287 2.11595 24.0088C2.11595 20.9141 10.0979 13.1706 16.492 10.0597C27.7043 4.60716 36.6683 3.09211 55.3293 3.49797C69.3751 3.80352 74.5114 4.3881 81.1353 6.43814ZM84.0534 12.6505C90.4535 14.5818 98.8674 20.5348 98.8674 24.1172C98.8674 27.5659 95.4835 32.2436 90.9302 35.0892C88.6625 36.5063 86.3659 37.6662 85.8265 37.6662C85.5493 37.6662 85.7865 36.7169 85.8265 35.3651C85.8645 34.081 86.1301 32.7435 86.2615 30.7786C86.7186 23.9298 85.5992 22.8016 82.4064 19.9791C77.7151 15.8317 69.8746 13.4738 58.0298 12.6505C52.5307 12.2677 48.2628 11.7351 48.5446 11.4664C49.6705 10.393 66.028 9.55472 72.277 10.0597C75.9354 10.3549 80.8642 11.6878 84.0534 12.6505ZM69.3329 17.0135C78.0816 19.5098 83.1453 21.9403 83.1453 26.6619V29.6182L77.4007 26.6619C61.4645 20.5244 38.0506 19.8453 22.0601 26.0024L16.6287 28.4854V26.0024C16.6287 23.1948 17.1922 21.5195 18.1404 21.5126C18.9725 21.5068 23.7209 20.1795 27.3793 18.548C31.0377 16.9153 36.4951 16.046 39.1557 15.4903C45.811 14.1032 61.8419 14.8758 69.3329 17.0135ZM14.2099 29.6182V36.5605L9.71463 33.0934C7.02131 31.7836 4.97363 30.2725 4.56244 29.2498C3.65418 26.9945 6.99784 24.0088 10.4507 24.0088C12.5187 24.0088 14.2099 23.5119 14.2099 29.6182ZM64.9167 26.6619C68.4409 27.3756 74.2417 28.8169 77.4007 30.3342L83.1453 33.0934L83.0921 39.1271C82.9095 60.1418 74.9287 65.9979 47.6 65.17C35.9959 64.8195 33.2554 64.3468 28.0852 61.8113C24.7776 60.1879 20.8265 57.099 19.3051 54.9475C16.8959 51.5392 16.5839 49.8373 16.8863 41.7559L17.2334 32.4777L22.0601 30.4807C32.7112 25.525 51.3679 23.9212 64.9167 26.6619Z" fill="url(#paint0_linear_1079_450)"/>
</g>
<defs>
<linearGradient id="paint0_linear_1079_450" x1="24.2889" y1="54.358" x2="91.7743" y2="17.5936" gradientUnits="userSpaceOnUse">
<stop stop-color="#F860E6"/>
<stop offset="1" stop-color="#E0E843"/>
</linearGradient>
</defs>
</svg>
